# xmcd
#
# Track frame offsets:
# 150
# 21762
# 42955
# 64117
# 85882
# 107285
# 128385
# 150772
# 170595
# 186735
#
# Disc length: 2859 seconds
#
#
# Revision: 0
# Processed by: cddbd v1.5.1PL2 Copyright (c) Steve Scherf et al.
# Submitted via: FreeRIP 2.51 
#
DISCID=720b290a
DTITLE=Andrae Crouch, CeCe Winans, Sandra Crouch et al - Power in the Spirit
DYEAR=1989
DGENRE=A Cappella
TTITLE0=Right Now Andrae Crouch
TTITLE1=IOU Me BeBe and Ce Ce Winans
TTITLE2=So Good to Know (The Saviour) Commissioned
TTITLE3=His Eye is on the Sparrow Larnelle Harris
TTITLE4=Stand Up for Jesus The NJ Mass Choir
TTITLE5=Restoration The Winans
TTITLE6=Wings of an Eagle Deniece Williams
TTITLE7=The Darkest Hour is just Before the Day The Clark Sisters
TTITLE8=Always Triumphant Billy and Sarah Gaines
TTITLE9=He's Worthy Sandra Crouch
EXTD=
EXTT0=
EXTT1=
EXTT2=
EXTT3=
EXTT4=
EXTT5=
EXTT6=
EXTT7=
EXTT8=
EXTT9=
PLAYORDER=
